<?xml version="1.0" standalone="no"?>
<!DOCTYPE svg PUBLIC "-//W3C//DTD SVG 20010904//EN"
 "http://www.w3.org/TR/2001/REC-SVG-20010904/DTD/svg10.dtd">
<svg version="1.0" xmlns="http://www.w3.org/2000/svg"
 width="731.000000pt" height="731.000000pt" viewBox="0 0 731.000000 731.000000"
 preserveAspectRatio="xMidYMid meet">
<metadata>
Created by potrace 1.14, written by Peter Selinger 2001-2017
</metadata>
<g transform="translate(0.000000,731.000000) scale(0.100000,-0.100000)"
fill="#000000" stroke="none">
<path d="M3455 7299 c-765 -39 -1483 -315 -2095 -804 -150 -120 -425 -392
-536 -530 -655 -819 -931 -1818 -783 -2840 170 -1185 929 -2225 2004 -2750
393 -192 784 -304 1240 -356 145 -17 588 -17 735 0 171 19 381 56 521 91 1040
263 1901 956 2383 1919 476 948 507 2085 87 3066 -210 488 -541 946 -931 1288
-458 402 -963 668 -1538 813 -336 85 -727 122 -1087 103z m705 -142 c455 -70
836 -199 1225 -417 1013 -566 1691 -1613 1795 -2770 13 -148 13 -482 0 -630
-90 -1007 -600 -1915 -1419 -2528 -880 -659 -2033 -866 -3096 -557 -408 119
-793 311 -1129 564 -698 524 -1182 1289 -1351 2136 -51 256 -68 433 -68 700 1
331 30 562 108 875 340 1349 1468 2385 2845 2614 237 39 321 45 635 41 247 -3
314 -7 455 -28z"/>
<path d="M3548 6953 l-36 -4 -6 -72 c-4 -40 -11 -144 -16 -232 -6 -87 -12
-160 -14 -162 -3 -4 -97 427 -96 445 0 11 -16 12 -77 7 -43 -4 -79 -8 -80 -9
0 0 10 -136 23 -301 13 -165 24 -315 24 -332 0 -33 1 -33 48 -33 l48 0 -18
233 c-10 127 -16 236 -15 241 1 4 27 -98 56 -228 l54 -236 43 0 c52 0 48 -13
64 230 18 286 22 290 41 55 10 -115 18 -225 18 -244 l1 -34 47 7 c25 3 48 8
50 10 4 4 -30 486 -43 609 l-6 57 -36 -2 c-21 -1 -54 -3 -74 -5z"/>
<path d="M3905 6734 c-37 -115 -83 -260 -103 -322 -41 -126 -39 -132 28 -132
34 0 35 1 53 61 l18 61 37 -6 c20 -3 47 -6 60 -6 21 0 22 -4 22 -69 l0 -68 38
-7 c20 -3 43 -6 50 -6 9 0 12 55 12 243 0 133 -3 286 -7 339 -7 108 0 100 -95
113 l-47 7 -66 -208z m115 -95 l0 -162 -42 7 c-23 4 -44 9 -46 11 -4 3 81 305
86 305 1 0 2 -73 2 -161z"/>
<path d="M2910 6868 c-69 -17 -126 -31 -127 -32 -4 -3 145 -647 150 -652 2 -2
63 9 135 26 71 16 133 30 136 30 9 0 7 20 -4 62 l-10 36 -63 -15 c-127 -30
-111 -37 -136 69 -11 51 -21 96 -21 99 0 4 32 15 70 24 56 14 70 21 66 34 -3
9 -8 29 -12 45 -6 26 -9 28 -43 22 -20 -4 -52 -10 -72 -13 l-36 -5 -17 72 c-9
40 -16 78 -16 85 0 7 34 20 85 31 l86 19 -7 40 c-8 48 -11 55 -27 54 -7 -1
-68 -15 -137 -31z"/>
<path d="M4337 6838 c-30 -103 -157 -587 -157 -596 0 -5 12 -12 28 -15 15 -3
35 -9 44 -12 13 -5 19 0 24 22 20 85 105 401 113 418 5 12 7 -80 3 -227 l-5
-246 53 -16 c29 -9 55 -15 56 -13 5 5 176 649 172 651 -1 2 -22 8 -45 13 l-43
11 -10 -37 c-57 -215 -90 -334 -93 -337 -1 -2 -1 88 1 199 l4 203 -48 11 c-27
7 -56 14 -66 18 -13 5 -19 -4 -31 -47z"/>
<path d="M4801 6713 c-5 -21 -18 -68 -27 -105 -19 -73 -19 -72 13 -82 19 -6
27 3 67 76 64 118 63 113 19 127 -21 7 -43 15 -50 17 -7 3 -16 -10 -22 -33z"/>
<path d="M2407 6707 c-26 -11 -46 -23 -45 -27 2 -3 59 -142 128 -308 69 -166
130 -302 135 -302 6 0 65 23 132 51 l122 52 -15 36 c-8 20 -18 39 -22 43 -4 4
-40 -7 -80 -24 -41 -17 -77 -27 -82 -22 -4 5 -52 115 -105 244 -54 129 -102
244 -109 256 l-11 21 -48 -20z"/>
<path d="M2105 6565 c-71 -41 -134 -76 -139 -77 -9 -4 30 -88 41 -88 3 0 26
11 49 25 l43 25 39 -67 c21 -38 82 -148 136 -245 53 -98 101 -180 106 -183 10
-6 90 31 90 43 0 4 -61 117 -135 251 -74 134 -135 247 -135 250 0 4 20 17 45
31 25 14 45 26 45 28 0 10 -44 82 -49 81 -3 0 -64 -34 -136 -74z"/>
<path d="M5012 6594 c-82 -65 -96 -168 -44 -319 31 -90 32 -118 8 -176 -11
-25 -47 -38 -73 -26 -31 14 -37 39 -18 83 18 43 18 41 -35 65 l-40 18 -16 -30
c-41 -81 -25 -170 39 -210 106 -65 190 -39 250 78 27 51 22 136 -13 236 -35
102 -37 131 -10 175 23 37 57 43 83 14 21 -23 21 -35 2 -72 -15 -28 -15 -28
28 -49 24 -12 46 -21 49 -21 9 0 38 90 38 118 0 110 -160 185 -248 116z"/>
<path d="M1803 6383 l-32 -28 108 -150 c60 -82 107 -152 106 -153 -3 -4 -79
59 -243 200 -31 28 -59 44 -66 40 -65 -41 -96 -67 -92 -77 10 -26 379 -535
388 -535 14 0 68 40 68 49 0 4 -58 89 -128 187 -147 205 -154 217 -121 188 13
-12 100 -85 193 -163 l168 -141 42 32 c22 17 42 32 43 33 5 3 -383 539 -392
542 -6 2 -25 -9 -42 -24z"/>
<path d="M5574 6122 c-72 -81 -173 -193 -223 -249 -55 -61 -90 -107 -85 -114
8 -14 68 -69 120 -109 77 -62 145 -57 215 13 72 73 92 111 87 161 -4 34 -2 43
8 39 47 -18 177 92 190 161 11 60 -11 90 -156 223 l-26 23 -130 -148z m180
-33 c14 -17 26 -35 26 -40 0 -20 -83 -99 -104 -99 -24 0 -66 26 -66 41 0 12
101 129 111 129 4 0 19 -14 33 -31z m-163 -231 c6 -12 6 -26 -2 -40 -18 -35
-91 -108 -109 -108 -9 0 -31 13 -49 28 l-34 28 54 58 c30 32 60 67 68 78 13
19 14 19 38 -4 14 -13 29 -31 34 -40z"/>
<path d="M1343 6013 l-102 -98 237 -243 237 -243 103 103 102 104 -36 34 c-31
30 -37 33 -48 20 -6 -8 -35 -37 -63 -64 l-51 -48 -71 73 -70 74 50 50 49 51
-28 32 c-16 18 -33 32 -38 32 -5 -1 -29 -21 -54 -45 -25 -25 -47 -45 -50 -45
-3 0 -32 27 -65 60 l-59 60 62 61 c34 34 62 64 62 68 0 8 -53 61 -61 61 -2 0
-50 -44 -106 -97z"/>
<path d="M3460 6053 c-196 -19 -343 -48 -505 -97 -801 -242 -1424 -891 -1631
-1699 -49 -190 -64 -310 -71 -537 -9 -320 22 -531 118 -825 293 -893 1097
-1538 2037 -1636 163 -17 484 -7 642 20 503 86 946 316 1306 675 356 356 581
790 671 1296 23 128 26 174 27 385 1 255 -7 337 -50 535 -101 454 -319 852
-649 1185 -392 394 -911 639 -1469 694 -101 10 -344 12 -426 4z m455 -124
c392 -41 778 -195 1116 -445 134 -99 353 -319 456 -457 180 -243 312 -516 384
-795 163 -633 52 -1306 -304 -1837 -371 -556 -932 -911 -1597 -1012 -139 -21
-459 -23 -600 -5 -412 55 -806 220 -1136 478 -79 61 -250 224 -309 294 -295
346 -473 739 -542 1190 -23 158 -23 473 1 630 77 503 285 925 630 1279 143
146 229 217 391 323 446 294 957 414 1510 357z"/>
<path d="M3423 5380 c-69 -16 -118 -70 -163 -181 -30 -76 -81 -142 -123 -162
-46 -22 -122 -21 -172 2 -22 10 -63 39 -91 65 -29 25 -57 46 -63 46 -45 0 -19
-154 46 -269 46 -83 134 -170 210 -207 52 -26 68 -29 158 -29 90 0 106 3 160
29 81 40 190 150 235 238 l35 68 30 -60 c62 -122 177 -228 288 -264 59 -20
159 -21 219 -2 142 42 281 206 318 376 26 119 -3 150 -73 78 -63 -65 -124 -91
-198 -86 -89 6 -142 56 -193 182 -50 123 -114 180 -202 178 -23 0 -55 -7 -71
-16 -38 -19 -85 -72 -102 -115 l-14 -32 -24 43 c-55 98 -125 137 -210 118z"/>
<path d="M4390 4435 l-735 -735 -731 731 c-613 613 -735 730 -755 727 -14 -2
-25 -11 -27 -22 -3 -13 195 -217 729 -752 l734 -734 -734 -734 c-540 -540
-732 -738 -728 -750 4 -9 14 -19 23 -23 12 -4 209 187 748 726 402 402 733
731 736 731 3 0 334 -329 736 -731 535 -534 736 -730 750 -727 12 2 20 13 22
28 2 21 -111 138 -728 755 l-730 730 737 737 c731 731 737 737 718 758 -10 11
-21 20 -24 20 -3 0 -337 -331 -741 -735z"/>
<path d="M1691 4271 c-9 -6 -11 -18 -8 -32 4 -13 88 -134 188 -269 277 -374
262 -355 293 -353 26 2 26 0 -24 -59 -127 -152 -147 -171 -168 -159 -33 18
-87 13 -122 -11 -53 -37 -73 -71 -78 -135 -14 -220 264 -258 294 -40 4 25 2
60 -5 77 -11 32 -9 34 82 138 51 58 97 107 103 109 6 2 54 -46 107 -106 89
-102 96 -113 87 -136 -22 -58 -3 -144 41 -191 33 -35 96 -48 147 -31 32 11 44
12 50 3 30 -49 126 -62 182 -23 18 12 42 34 54 50 19 26 19 28 3 44 -16 16
-19 15 -49 -14 -58 -56 -108 -62 -151 -18 -16 15 -16 19 -1 47 26 50 15 139
-23 185 -41 51 -92 70 -147 55 -46 -13 -34 -22 -156 118 -87 100 -100 121 -59
99 17 -8 24 -8 35 3 46 46 453 607 454 624 0 20 -17 34 -40 34 -7 0 -117 -123
-410 -458 -63 -73 -117 -132 -121 -132 -4 0 -112 120 -240 268 -304 348 -288
332 -318 313z m589 -656 c0 -7 -7 -18 -15 -25 -12 -10 -18 -10 -30 0 -19 16
-19 25 1 45 12 12 19 13 30 4 8 -6 14 -17 14 -24z m-311 -281 c72 -51 57 -173
-26 -205 -37 -14 -92 15 -110 59 -41 97 57 201 136 146z m658 -4 c70 -42 65
-154 -8 -194 -35 -19 -36 -19 -75 0 -77 38 -83 150 -11 194 18 11 39 20 47 20
8 0 29 -9 47 -20z"/>
<path d="M4180 4011 c-17 -33 -11 -73 19 -136 53 -113 153 -223 434 -477 194
-176 217 -202 198 -221 -14 -14 -14 -52 -1 -77 14 -27 71 -43 105 -30 56 21
77 -45 44 -143 -23 -67 -16 -87 22 -66 30 15 36 25 50 74 9 32 8 57 -6 123
-10 45 -16 84 -14 86 358 274 650 550 713 673 37 72 8 144 -65 163 -57 16
-102 -9 -158 -85 -67 -90 -215 -266 -329 -392 -98 -107 -244 -243 -261 -243
-5 0 -59 57 -122 128 -264 296 -592 642 -611 642 -4 0 -12 -9 -18 -19z m1494
-126 c2 -7 -2 -19 -10 -26 -22 -18 -53 13 -35 35 14 16 37 12 45 -9z m-716
-713 c3 -16 -2 -22 -17 -22 -24 0 -35 15 -27 36 9 23 40 13 44 -14z"/>
<path d="M4293 3973 c56 -52 250 -251 415 -423 55 -58 61 -62 53 -35 -33 117
-194 326 -329 427 -67 50 -143 88 -175 88 -23 0 -20 -6 36 -57z"/>
<path d="M2840 2317 c0 -239 13 -286 90 -340 23 -16 79 -17 726 -17 l702 0 32
26 c17 15 41 45 53 68 20 38 22 58 25 249 l4 207 -36 0 -36 0 0 -170 0 -170
-35 0 -35 0 -2 167 c-3 151 -5 168 -20 171 -17 3 -18 -10 -18 -167 l0 -171
-30 0 -30 0 0 170 c0 144 -2 170 -15 170 -13 0 -15 -26 -15 -170 l0 -170 -30
0 -30 0 0 170 c0 163 -1 170 -20 170 -19 0 -20 -7 -20 -170 l0 -170 -25 0 -25
0 -2 167 c-3 151 -5 168 -20 171 -17 3 -18 -10 -18 -168 l0 -171 -27 3 -28 3
-3 168 c-2 139 -5 167 -17 167 -13 0 -15 -27 -15 -170 l0 -170 -30 0 -30 0 0
170 c0 163 -1 170 -20 170 -19 0 -20 -7 -20 -170 l0 -170 -25 0 -25 0 -2 167
c-3 151 -5 168 -20 171 -17 3 -18 -10 -18 -167 l0 -171 -30 0 -30 0 0 170 c0
143 -2 170 -15 170 -12 0 -15 -28 -17 -167 l-3 -168 -27 -3 -28 -3 0 170 c0
164 -1 171 -20 171 -19 0 -20 -7 -20 -170 l0 -170 -25 0 -25 0 -2 167 c-3 151
-5 168 -20 171 -17 3 -18 -10 -18 -167 l0 -171 -30 0 -30 0 0 170 c0 144 -2
170 -15 170 -13 0 -15 -26 -15 -170 l0 -170 -30 0 -30 0 0 170 c0 163 -1 170
-20 170 -19 0 -20 -7 -20 -170 l0 -170 -25 0 -25 0 -2 167 c-3 151 -5 168 -20
171 -17 3 -18 -10 -18 -167 l0 -171 -30 0 -30 0 0 171 c0 157 -1 170 -17 167
-16 -3 -18 -20 -21 -171 l-2 -167 -25 0 -25 0 0 170 c0 163 -1 170 -20 170
-19 0 -20 -7 -20 -170 l0 -170 -35 0 -35 0 0 170 0 170 -35 0 -35 0 0 -193z"/>
<path d="M5895 5763 c-115 -74 -246 -157 -289 -184 l-79 -51 36 -36 36 -36 54
36 54 36 37 -43 c20 -24 36 -46 36 -49 0 -3 -18 -26 -40 -51 l-40 -46 32 -40
c17 -22 35 -38 38 -37 8 4 107 123 294 356 l138 172 -42 48 c-24 26 -46 50
-49 53 -3 4 -100 -54 -216 -128z m144 -20 c-8 -10 -54 -67 -103 -126 l-90
-108 -25 33 c-15 18 -26 36 -26 40 0 7 242 175 254 177 2 1 -3 -7 -10 -16z"/>
<path d="M1085 5725 c-36 -18 -82 -85 -91 -132 -11 -60 19 -98 192 -236 87
-70 176 -137 196 -148 46 -24 115 -25 148 -2 97 68 114 178 38 249 -44 41
-189 154 -198 154 -4 0 -27 -26 -52 -57 l-45 -58 28 -22 c39 -32 58 -38 65
-19 3 9 10 16 15 16 16 0 128 -92 132 -109 6 -26 -15 -61 -40 -67 -25 -7 -50
10 -280 193 -98 77 -112 103 -77 137 23 23 46 20 91 -13 l40 -29 31 41 32 40
-33 24 c-74 56 -132 67 -192 38z"/>
<path d="M6081 5400 c-151 -99 -276 -182 -278 -184 -8 -8 50 -87 61 -83 6 3
61 37 121 76 l110 71 18 -21 c39 -48 23 -72 -105 -157 -42 -29 -79 -56 -83
-61 -5 -8 41 -91 50 -91 2 0 46 29 98 65 104 71 147 114 147 149 0 20 5 22 53
22 44 0 63 6 105 33 29 18 64 47 78 64 22 27 26 38 22 82 -3 40 -15 68 -57
133 -29 45 -56 82 -59 82 -4 0 -130 -81 -281 -180z m282 5 c21 -44 15 -58 -41
-95 -59 -39 -94 -39 -121 -1 l-21 29 78 51 c42 28 80 51 83 51 3 0 13 -16 22
-35z"/>
<path d="M660 5060 c-35 -71 -62 -131 -60 -132 9 -6 565 -283 583 -290 14 -6
28 13 81 120 l64 128 -36 19 c-21 10 -40 20 -44 22 -4 2 -26 -32 -48 -77 -22
-44 -42 -80 -44 -80 -7 0 -161 81 -169 89 -5 5 5 36 22 70 l31 61 -40 20 c-21
11 -42 20 -44 20 -3 0 -19 -27 -36 -60 -17 -33 -34 -60 -39 -60 -20 0 -146 73
-143 84 1 6 14 31 27 56 49 92 49 97 7 116 -20 10 -40 19 -43 20 -3 2 -34 -55
-69 -126z"/>
<path d="M6323 5031 c-166 -75 -303 -141 -303 -148 0 -7 21 -55 46 -108 51
-106 81 -135 146 -135 90 0 228 86 228 143 0 26 0 26 35 11 29 -12 44 -12 78
-3 164 44 195 124 114 290 l-42 86 -302 -136z m279 -42 c11 -39 11 -43 -13
-63 -14 -12 -44 -28 -68 -36 -43 -14 -44 -14 -67 14 -13 15 -24 34 -24 42 0
12 124 80 152 83 4 1 13 -18 20 -40z m-252 -109 c20 -49 7 -75 -54 -104 -75
-35 -101 -34 -126 7 -11 17 -20 37 -20 43 0 10 153 83 176 84 6 0 17 -13 24
-30z"/>
<path d="M511 4727 c-5 -12 -11 -35 -15 -52 l-6 -30 119 -34 c66 -19 125 -37
130 -41 8 -4 6 -22 -4 -57 l-15 -51 -68 19 c-37 11 -97 28 -134 38 l-66 19
-12 -49 c-7 -28 -11 -52 -9 -53 6 -5 623 -186 634 -186 10 0 40 89 32 96 -2 2
-67 23 -144 46 l-141 41 15 51 c8 28 16 52 18 54 1 2 64 -15 138 -37 75 -23
140 -41 145 -41 11 0 38 88 29 96 -4 4 -111 37 -585 177 -52 16 -53 16 -61 -6z"/>
<path d="M6492 4631 c-255 -76 -322 -99 -318 -111 55 -184 76 -254 80 -257 7
-7 86 20 86 29 0 6 -10 43 -22 84 -13 45 -18 78 -12 83 13 12 184 60 187 52 2
-3 12 -34 22 -69 14 -48 22 -61 34 -58 9 3 28 8 44 12 31 7 34 23 12 84 -8 23
-15 49 -15 56 0 12 117 54 152 54 11 0 23 -25 39 -80 25 -86 29 -89 88 -69 18
6 30 17 28 23 -3 7 -22 68 -42 137 -20 68 -37 124 -38 125 -1 1 -147 -42 -325
-95z"/>
<path d="M6620 4265 c-151 -28 -292 -55 -313 -59 -39 -7 -39 -8 -32 -44 13
-75 0 -72 155 -42 l140 27 6 -24 c4 -12 3 -34 0 -48 -7 -27 -35 -37 -189 -70
l-78 -17 7 -46 c8 -58 15 -66 45 -53 13 6 62 18 109 27 112 21 146 36 169 75
17 27 21 30 27 16 10 -28 75 -39 146 -27 142 26 168 73 137 246 -15 85 -18 94
-37 93 -9 -1 -141 -25 -292 -54z m238 -113 c4 -50 -13 -62 -98 -69 -52 -5 -59
-3 -74 18 -9 13 -16 33 -16 45 0 19 10 23 83 36 45 9 87 15 92 14 6 -2 11 -21
13 -44z"/>
<path d="M369 4143 c-17 -106 -21 -160 -14 -164 5 -4 27 -9 47 -12 l37 -6 7
50 c4 27 10 52 14 54 4 3 133 -15 286 -40 153 -24 279 -43 280 -42 2 1 6 26
10 55 5 41 4 52 -7 52 -8 0 -70 9 -139 20 -69 11 -186 29 -260 41 -74 11 -140
22 -146 24 -8 2 -9 18 -2 55 5 29 8 53 6 55 -2 1 -24 5 -49 9 l-45 7 -25 -158z"/>
<path d="M575 3805 c-46 -25 -63 -44 -81 -91 -63 -166 136 -301 271 -183 80
70 72 196 -18 263 -36 27 -131 33 -172 11z"/>
<path d="M6569 3797 c-52 -35 -79 -82 -79 -139 0 -154 179 -231 286 -124 108
108 31 286 -123 286 -35 0 -60 -7 -84 -23z"/>
<path d="M6317 3303 c-3 -15 -4 -30 -1 -32 2 -2 47 -14 99 -26 53 -13 99 -26
102 -29 7 -7 -36 -207 -47 -219 -4 -5 -47 1 -94 12 -118 28 -126 28 -126 -8 0
-27 4 -30 48 -40 26 -5 137 -30 247 -55 206 -47 214 -47 215 -4 0 18 -15 24
-150 54 -41 9 -76 17 -78 19 -1 1 10 54 24 117 l27 115 96 -23 c126 -31 137
-30 145 2 4 15 6 27 4 29 -2 1 -106 25 -233 54 -126 28 -240 54 -251 57 -17 5
-22 0 -27 -23z"/>
<path d="M840 3309 c-46 -10 -79 -51 -110 -135 -14 -37 -36 -80 -48 -96 -32
-37 -79 -38 -113 -2 -21 23 -24 35 -23 100 l0 75 -30 -3 c-31 -3 -31 -4 -34
-68 -2 -52 2 -74 20 -110 38 -75 111 -107 181 -81 39 15 64 49 93 125 49 131
94 165 145 110 21 -22 24 -35 24 -95 0 -65 1 -70 20 -65 11 3 26 6 33 6 8 0
12 16 12 48 0 132 -71 212 -170 191z"/>
<path d="M6221 2884 c-49 -63 -69 -202 -38 -275 48 -116 222 -189 341 -144 81
31 147 126 169 241 5 27 2 33 -20 43 -29 14 -43 3 -43 -35 0 -37 -30 -108 -58
-138 -70 -75 -193 -75 -281 0 -79 68 -87 156 -25 261 26 43 32 58 22 65 -23
14 -46 8 -67 -18z"/>
<path d="M545 2849 c11 -36 15 -38 91 -45 l71 -7 39 -114 c35 -102 37 -116 23
-126 -8 -7 -34 -28 -56 -47 -38 -33 -40 -37 -29 -67 l11 -31 195 164 c249 210
233 193 220 230 l-11 31 -217 12 c-119 6 -246 15 -281 18 -63 6 -63 6 -56 -18z
m480 -71 c3 -2 -23 -27 -58 -55 -34 -28 -78 -65 -98 -82 l-36 -30 -31 89 c-17
48 -29 90 -27 92 5 5 245 -8 250 -14z"/>
<path d="M1080 2494 c-69 -37 -171 -91 -227 -121 l-103 -54 60 -112 c32 -61
63 -113 67 -114 5 -2 18 3 28 11 19 14 19 17 -25 100 -24 47 -42 87 -40 89 4
4 161 87 342 182 l56 29 -14 28 c-8 15 -16 28 -17 28 -1 0 -58 -30 -127 -66z"/>
<path d="M6026 2453 l-14 -28 230 -118 c126 -65 231 -117 233 -115 5 6 25 47
25 51 0 3 -103 57 -230 121 l-229 116 -15 -27z"/>
<path d="M5981 2359 l-23 -31 22 -139 c13 -77 20 -142 17 -145 -3 -3 -41 19
-85 50 l-80 56 -17 -26 c-9 -14 -13 -30 -8 -34 4 -4 100 -71 212 -149 188
-131 204 -140 217 -124 7 10 14 23 14 30 0 6 -40 40 -90 74 -49 34 -89 64 -87
65 1 2 72 14 157 29 148 24 156 27 182 57 15 17 26 33 24 35 -2 2 -86 -10
-186 -27 -100 -17 -184 -29 -185 -28 -2 2 -15 77 -30 168 -15 91 -28 166 -29
167 -1 2 -13 -11 -25 -28z"/>
<path d="M1223 2240 c-70 -16 -176 -98 -209 -161 -60 -117 -17 -247 101 -305
48 -23 63 -26 111 -20 88 10 194 75 239 145 62 100 52 205 -29 286 -59 59
-125 76 -213 55z m143 -76 c44 -21 74 -70 74 -123 0 -58 -20 -100 -70 -145
-115 -104 -250 -101 -306 6 -73 141 149 334 302 262z"/>
<path d="M5681 1954 c-73 -63 -99 -141 -66 -204 29 -55 115 -77 188 -47 18 8
56 20 85 26 45 11 56 11 77 -3 13 -9 29 -25 35 -36 24 -45 -32 -128 -103 -153
l-28 -9 22 -24 c29 -31 38 -30 91 11 82 62 110 159 65 226 -47 70 -103 80
-226 38 -70 -24 -123 -25 -144 -1 -10 10 -17 24 -17 31 0 32 37 86 76 111 l43
27 -22 22 c-13 11 -26 21 -28 21 -3 0 -24 -16 -48 -36z"/>
<path d="M1455 1744 c-94 -98 -171 -182 -173 -189 -1 -6 6 -19 16 -28 19 -17
24 -13 157 128 76 79 140 143 142 141 2 -1 -21 -105 -52 -229 l-55 -227 25
-25 25 -25 129 133 c70 72 151 157 179 187 l52 54 -20 21 -21 20 -146 -148
c-80 -82 -142 -141 -140 -130 3 10 29 114 57 231 l52 213 -23 25 c-12 13 -25
24 -28 24 -4 0 -83 -79 -176 -176z"/>
<path d="M5389 1668 c-51 -45 -93 -86 -91 -91 1 -5 64 -79 140 -164 75 -86
150 -171 165 -189 l28 -34 100 87 c54 47 99 89 99 93 0 4 -9 15 -20 25 -19 17
-22 16 -93 -48 l-74 -66 -39 42 c-22 23 -49 53 -59 66 l-20 23 70 64 70 63
-20 21 -21 20 -69 -59 c-78 -66 -72 -67 -137 12 l-42 50 22 18 c13 10 46 39
74 64 51 46 51 46 32 66 -20 19 -21 19 -115 -63z"/>
<path d="M5192 1509 c-17 -12 -32 -25 -32 -30 0 -5 11 -102 25 -216 14 -114
24 -212 23 -219 -2 -6 -83 51 -181 127 l-177 138 -35 -20 c-19 -12 -35 -23
-35 -25 0 -5 248 -435 254 -442 3 -2 16 3 30 10 l26 14 -99 169 c-54 94 -97
172 -95 174 1 2 40 -26 86 -61 166 -129 247 -188 261 -188 37 0 38 23 12 230
-15 111 -25 208 -23 216 2 7 48 -64 102 -159 55 -94 101 -174 102 -176 2 -2
15 4 28 13 l25 16 -18 33 c-74 129 -234 403 -240 409 -3 4 -21 -2 -39 -13z"/>
<path d="M2148 1177 c-115 -200 -126 -223 -111 -234 9 -7 22 -13 29 -13 7 0
38 45 70 100 l58 100 45 -27 c25 -15 60 -35 77 -45 31 -18 31 -18 48 6 l16 25
-73 42 c-39 24 -74 44 -77 47 -5 3 41 93 64 125 12 16 19 14 92 -28 72 -41 80
-43 92 -28 7 10 11 22 9 28 -3 9 -195 125 -207 125 -3 0 -62 -100 -132 -223z"/>
<path d="M5821 1326 l-22 -23 47 -7 c87 -11 111 -8 117 16 8 29 -7 38 -69 38
-40 0 -55 -5 -73 -24z"/>
<path d="M2455 1024 c-49 -130 -91 -239 -93 -243 -1 -4 11 -12 28 -18 l29 -11
42 108 c45 118 48 120 105 75 29 -23 29 -25 32 -138 l4 -116 30 -10 c17 -6 33
-9 35 -7 6 6 -13 250 -21 269 -7 14 -3 17 19 17 85 0 144 113 99 190 -20 33
-56 55 -147 92 -38 16 -69 28 -70 28 -1 0 -42 -107 -92 -236z m173 141 c80
-34 103 -86 61 -139 -17 -21 -29 -26 -65 -26 -38 0 -75 10 -93 26 -4 4 51 154
57 154 1 0 19 -7 40 -15z"/>
<path d="M2825 1134 c4 -11 32 -87 61 -170 l55 -151 -24 -104 c-21 -93 -22
-105 -8 -111 42 -17 47 -11 70 97 l24 104 112 111 c62 60 116 110 119 110 3 0
6 -7 6 -15 0 -11 14 -15 58 -16 31 -1 86 -4 121 -8 l63 -6 -140 -186 c-149
-199 -171 -244 -123 -253 14 -3 71 -8 126 -11 55 -3 119 -8 143 -12 41 -5 42
-5 42 25 0 34 1 33 -172 47 -43 4 -78 10 -78 13 1 4 63 90 140 192 149 198
169 240 113 240 -16 0 -100 7 -187 15 l-160 14 -99 -95 c-54 -53 -100 -94
-102 -92 -1 2 -22 60 -45 130 -34 101 -47 129 -64 134 -12 3 -30 8 -40 11 -15
4 -18 2 -11 -13z"/>
<path d="M4178 1083 c-52 -12 -68 -20 -68 -33 0 -15 93 -428 106 -473 5 -15
12 -17 32 -12 15 4 28 8 30 9 1 2 -9 52 -23 111 -14 59 -25 108 -25 110 0 9
70 16 89 10 12 -4 51 -47 87 -96 64 -87 77 -96 117 -81 15 7 7 22 -58 109 -42
56 -83 104 -92 107 -14 6 -12 11 13 37 25 26 29 38 29 89 0 65 -17 93 -72 116
-40 17 -79 16 -165 -3z m146 -65 c48 -44 36 -107 -28 -137 -72 -35 -79 -32
-98 56 -10 42 -16 78 -13 81 6 6 66 20 92 21 12 1 33 -9 47 -21z"/>
<path d="M3945 1040 c-3 -5 -1 -66 5 -136 18 -231 9 -288 -51 -319 -37 -20
-99 -19 -127 1 -42 29 -54 71 -68 234 -7 85 -13 167 -14 181 0 23 -3 25 -30
21 -36 -5 -36 -9 -20 -209 17 -200 43 -262 123 -292 80 -31 194 4 232 69 17
29 20 53 20 140 0 58 -4 153 -8 213 -9 103 -10 107 -32 107 -13 0 -26 -4 -30
-10z"/>
</g>
</svg>
